<?xml version="1.0" encoding="UTF-8"?><svg id="a" xmlns="http://www.w3.org/2000/svg" width="56.134mm" height="56.134mm" viewBox="0 0 159.12 159.12"><path id="b" d="M122.08507,147.43605c-.75044,0-1.50088-.00146-2.25131-.00034-.30664.00047-1.57832-.16381-1.77141.19383-.1774.32856.3417,1.30931.45778,1.65045.2273.668.59706,1.3874.70859,2.08364.20815,1.2994-1.82925,1.01799-2.63263,1.06463-1.50579.08744-3.01005.19958-4.51628.28003-3.00352.16042-6.0601.21787-9.06404.03935-.69847-.04151-1.396-.0974-2.09339-.15385-.73086-.05917-1.46858-.30064-2.19345-.3045-1.46345-.00778-2.88366-.2811-4.3145-.57366-.67678-.13837-1.35013-.29294-2.02313-.44846-.64474-.149-1.30953-.41708-1.95416-.14895-.61014.25378-1.19188.67017-1.77316.98732-.67343.36741-1.34903.73167-2.00807,1.12462-1.18932.70913-2.34161,1.39739-3.60652,1.97014-.62327.28222-1.25028.55648-1.86515.85683-.63399.30971-1.20554.76471-1.94429.62834-.6611-.12202-1.29849-.49903-1.90212-.78278-.68254-.32083-1.359-.6561-2.04724-.96457-1.35538-.60749-2.65362-1.32634-3.94986-2.05112-1.06607-.59609-2.32693-1.79493-3.60752-1.76432-.68433.01636-1.38092.33634-2.04014.50057-.74941.18668-1.50707.33792-2.26824.46799-2.92459.49972-5.87617.76919-8.84226.81516-1.56549.02426-3.12762.0011-4.69111-.07758-1.50218-.0756-3.00601-.00432-4.50863-.05121-.73982-.02309-1.47561-.09917-2.21327-.15526-.7106-.05404-1.43947.1114-2.13765.02914-1.23843-.14593-.73925-1.36957-.50362-2.17365.20558-.70153.46712-1.41812.60052-2.13681.10381-.55925-.19136-.58627-.68738-.60231-1.5628-.05057-3.13063-.03127-4.69417-.04302-1.44539-.01084-2.84462-.24863-4.27775-.4368-.70494-.09255-1.4134-.07321-2.10821-.23257-.73406-.16834-1.46087-.37151-2.18802-.56706-.62013-.16676-1.23766-.33801-1.86679-.46761-.42864-.0883-1.2022-.16847-1.41959-.63381-.20041-.42899.23317-.90188.46067-1.2249.4401-.62487.85331-1.26732,1.27287-1.906.78887-1.20082,1.66502-2.32144,2.56092-3.44307.44301-.55463.89002-1.11045,1.30267-1.68831.39168-.5485.69427-1.12658,1.1852-1.59888.43974-.42306.90624-.81081,1.33249-1.24941.60357-.62109.01371-.93378-.53326-1.38113-.50484-.4129-1.04158-.78737-1.62221-1.08609-.68891-.35443-1.27087-.00541-1.95255.23868-2.775.99365-5.52681,2.02053-8.27605,3.08528-.91056.35266-2.46779,1.29844-3.37197.51858-.44214-.38133-.58761-1.05719-.78923-1.57538-.25403-.65287-.63586-1.34684-.75985-2.02917-.20877-1.14891-.8365-2.13016-1.26583-3.22138-.53575-1.36172-1.12815-2.70054-1.66302-4.06313-.25801-.65728-.51649-1.31565-.75127-1.98166-.24073-.6829-.32706-1.40125-.56032-2.08493-.46253-1.35566-1.0402-2.68201-1.58239-4.00725-.52444-1.28185-1.14086-2.51893-1.68064-3.79834-.23653-.56064-.31965-1.15134-.52861-1.71176-.248-.66513-.62007-1.29591-.87697-1.96365-1.04309-2.71127-2.24152-5.36639-3.24568-8.0915-.5055-1.37183-.98871-2.73596-1.59284-4.06894-.18581-.40997-.60937-1.01139-.48248-1.48932.13779-.51901.84716-.67562,1.28386-.81346,2.86601-.90466,5.55926-2.30106,8.43553-3.19915,1.31315-.41002,2.61818-.84041,3.94837-1.17412.65721-.16488,1.18392-.61246,1.81875-.84142.73161-.26388,1.48128-.48156,2.22329-.71375.35989-.11262.93773-.15375.90777-.6076-.02984-.45198-.93248-1.18945-1.21505-1.54416-.87243-1.09516-1.69912-2.22801-2.44804-3.41154-.70777-1.11851-1.34673-2.28201-1.88833-3.49019-.27083-.60416-.55819-1.1926-.86082-1.78157-.24629-.47931-.67938-1.13618-.34118-1.6685.29266-.46063,1.0352-.58184,1.49422-.81448.56128-.28446.379-.48589.03486-.92784-.85048-1.09222-1.6313-2.23595-2.2872-3.45637-.67566-1.25718-1.24449-2.58669-1.7892-3.90511-.24742-.59886-.50332-1.202-.65386-1.83388-.16823-.70614-.22525-1.43611-.44928-2.12925-.26817-.82969-1.12924-1.96428-.28385-2.72666.37735-.34029.90176-.40711,1.38469-.4628.45902-.05292.95021-.01552,1.00223-.5612.06491-.68093-.23298-1.51165-.39897-2.16268-.19319-.7577-.36544-1.51711-.54161-2.27861-.1477-.63846-.43224-1.25436-.53169-1.90133-.11015-.7166-.0978-1.45905-.17797-2.18136-.07977-.71869-.17538-1.4364-.2481-2.15575-.05398-.53398.00381-1.07524.57568-1.27808.50153-.17788,1.18211-.00803,1.69768.02888.34077.02439.68153.04922,1.02191.07861.38967.03364.67654.17508,1.04791.27414.62023.16544,1.28013-.01689,1.91101.00476.73468.02522,1.44795.18344,2.1629.34107.38228.08428,1.08737.34169,1.48087.14073.41331-.21108.49954-.96256.60942-1.35295.13365-.47484.19692-1.12519.64373-1.42566.47975-.32262,1.08636-.04172,1.57532.11139,1.40257.4392,2.78517.94692,4.13364,1.53193.60586.26284,1.20458.54259,1.79369.84113.50609.25647,1.12616.72088,1.68522.3769.9056-.55719,1.63917-2.37522,2.8956-1.63979,2.39101,1.39953,4.38088,3.29751,6.11502,5.42989.42912.52767.87357,1.07092,1.35383,1.5526.49086.49231.7926.33238,1.33325-.02012.50105-.32669,1.06574-.78541,1.69988-.73077.63118.05438,1.10523.61792,1.49583,1.06646.2648.30408.54033.86762.9381,1.02928.43415.17643,1.04031-.15005,1.4367-.28555,1.38311-.47277,2.75492-.98305,4.16339-1.37632.37245-.10399,1.11568-.17288,1.34061-.54331.23882-.39331-.03582-1.23573-.08544-1.65283-.1808-1.51967-.3578-3.04246-.39654-4.57369-.01887-.74583.01232-1.49125-.00025-2.23713-.01233-.73166-.11071-1.50013-.00347-2.22725.15861-1.07547,1.41725-.77158,2.25533-.78633.74722-.01315,1.5179.02472,2.26143-.05328.43785-.04594.79495-.08662.89635-.55503.1356-.62646.05915-1.36216.07269-2.00217.01586-.74974.01959-1.49871.07254-2.24679.20042-2.83169.27507-5.71672,1.49144-8.33779.44206-.95256.69151-2.36182,1.90092-2.52695.63131-.08619,1.32575-.07849,1.9544.02717.40752.06849,1.32276.63112,1.6628.32381.3785-.34206.32495-1.46609.43073-1.93216.13302-.58606.41071-1.185.43541-1.78117.05796-1.39937.46767-2.58534.89796-3.91298.45549-1.40535.92168-2.82743,1.57423-4.15621.68594-1.39677,1.8199-1.03652,3.0675-.64833.54395.16925,1.09586.40931,1.6536.52662.45561.09583.61838.0079.83145-.39884.68661-1.31063,1.24872-2.67838,1.97298-3.97363.67884-1.21402,1.43613-2.3809,2.26986-3.49435.79989-1.06825,1.71343-2.35875,2.8178-3.13801.9331-.65841,2.09976.8929,2.67411,1.46577.99305.9905,1.84631,2.22789,2.61776,3.39895.77717,1.17975,1.36744,2.42768,1.96315,3.70544.29052.62316.57839,1.24429.78201,1.9021.11482.37095.16302.99349.64466.99856.53046.00559,1.23737-.45039,1.73954-.62947.54144-.19308,1.30499-.61265,1.89312-.53921.46783.05841.66987.46195.85463.84766.32993.68877.63834,1.38403.97401,2.07064,1.26248,2.58241,1.60654,5.54158,1.85013,8.36909.0525.60937-.10237,1.73723.73267,1.7663.49092.01709,1.00671-.11347,1.4945-.1514.60239-.04683,1.38843-.23785,1.96466-.00288.99518.40579,1.49305,2.11063,1.8168,3.02808.47288,1.34004.64545,2.73705.75215,4.14744.11334,1.49814.1375,2.9719.053,4.47226-.04162.73884-.09136,1.4772-.14452,2.21529-.02624.36435-.27992,1.29927-.013,1.6351.24959.31403,1.07673.21887,1.40459.23595.76134.03968,1.52224.0814,2.28229.14218.50835.04065,1.28542-.02673,1.57097.50072.28202.52091.04472,1.43638.01518,2.00866-.0732,1.41782-.14927,2.84366-.46933,4.23107-.16713.72451-.37307,1.43992-.55365,2.16113-.08294.33124-.16651.66225-.2511.99307-.07052.27578-.31957.76595-.17443,1.04418.20388.3908.96344.40296,1.33775.48917.67384.15518,1.37158.31898,2.02118.55856.5982.22062,1.11412.6058,1.71437.82422.3098.11273.63929.13571.94711.2435.29761.10422.56693.36918.89908.35929.51376-.0153.96855-.67127,1.31786-.97566.44792-.39032,1.00844-1.02252,1.65918-.96527.536.04715,1.16656.46583,1.60572.75401.45434.29814.75787.61188,1.25104.21622,1.11007-.89061,2.02764-2.08929,3.07384-3.06095,1.07353-.99703,2.22182-1.91729,3.35164-2.84913.8059-.66468,2.10479-2.16113,3.1417-1.1336.45356.44945.79342,1.01614,1.26041,1.45254.44295.41394.76855.28298,1.28399.03458,1.33588-.64377,2.63848-1.20979,4.05262-1.66503.63854-.20555,1.27986-.40229,1.92108-.59927.53687-.16492,1.18137-.48654,1.75922-.39665,1.26016.19605,1.02636,1.91294,1.67042,2.66162.29357.34126.64853.17362,1.02716.07453.72391-.18944,1.46438-.26791,2.21108-.29135,1.48551-.04663,2.95446-.24275,4.43735-.35142.84832-.06217,2.31022-.38307,2.31212.81162.00119.74481-.12545,1.5145-.22386,2.25136-.09505.71181-.13453,1.42999-.24754,2.14016-.23099,1.45174-.63844,2.8827-1.0273,4.29835-.16834.61286-.50682,1.34943-.53171,1.98362-.02099.53455.41019.5588.8683.70212.48108.15051,1.27764.20458,1.64722.58023.35667.36253.13519.90031.02735,1.32337-.69267,2.71714-1.72645,5.47299-3.19594,7.865-.72806,1.18513-1.49241,2.39676-2.36438,3.48177-.27706.34477-1.19593,1.07324-1.20568,1.54159-.01075.51667.99188.66608,1.33487.8425,1.16014.59672.00854,2.3185-.38168,3.08435-.66996,1.31487-1.40418,2.57941-2.23395,3.80003-.80156,1.17912-1.56086,2.41233-2.47863,3.50569-.37695.44907-.99661.87486-1.2593,1.39514-.28781.57002.3898.64953.82796.78297,2.8969.88217,5.74276,1.87751,8.57991,2.93547,2.82878,1.05485,5.65204,2.13338,8.45219,3.2623,1.40607.56687.95193,1.54482.42924,2.66079-.59928,1.27956-1.25647,2.54575-1.72343,3.88143-.93746,2.68146-1.97246,5.34669-3.02484,7.98449-1.09482,2.74417-2.31816,5.43768-3.29369,8.22815-.4429,1.26688-1.01597,2.45313-1.47555,3.71131-.22824.62485-.43575,1.25724-.67418,1.87836-.24913.64896-.60155,1.23809-.87223,1.87269-.55211,1.2945-.9582,2.68018-1.45393,4.00042-.49972,1.33085-1.09594,2.61989-1.59697,3.94884-.35202.93369-.61314,2.63581-1.91651,2.51086-.65975-.06324-1.35675-.46479-1.96745-.70604-.70326-.27781-1.41379-.5354-2.12474-.79271-1.36267-.4932-2.7243-.9925-4.0938-1.46647-.65146-.22547-1.30789-.43673-1.95464-.67563-.64983-.24001-1.36071-.70053-2.06807-.70497-.52957-.00333-1.00636.25096-1.43268.54148-.27354.18642-.52884.39737-.78542.60596-.19443.15809-.74388.45308-.78835.70772-.08285.47455.81589,1.07168,1.11876,1.37814.52737.53366,1.04625,1.07539,1.56138,1.62085.99952,1.05836,2.00862,2.10798,2.91683,3.24724.91361,1.14605,1.72699,2.36101,2.57564,3.55437.5313.7471,1.57981,1.87986.18958,2.3255-1.3172.42223-2.6936.77521-4.04347,1.07706-2.84234.63558-5.85834.67062-8.75477.91907-.00305-.01614-.0061-.03227-.00915-.04841ZM113.5633,150.29651c.00193.02616.00386.05232.00579.07847.64701-.04148,1.29411-.0815,1.94103-.12438.52815-.03501.82333-.05131.66764-.63205-.30578-1.14053-.88996-2.23192-1.28185-3.34712-.28282-.80483-.07455-1.0899.77885-1.11139,1.18674-.02987,2.37832.02833,3.56543.03236,2.51943.00853,5.04613-.15719,7.558-.34323,1.23855-.09173,2.47676-.35893,3.69754-.57954.48007-.08675,1.80769-.11479,1.52788-.90366-.15873-.4475-.61252-.84674-.90693-1.20639-.37103-.45325-.74401-.90492-1.12093-1.35328-.799-.95042-1.60884-1.89551-2.4771-2.78375-.79194-.81018-1.61884-1.58498-2.40573-2.39969-.41291-.4275-.85293-.83988-1.30972-1.21988-.31081-.25854-.75675-.56773-.78957-1.01363-.06521-.88594,1.58063-1.5282,2.1761-1.92208.30264-.20019.92943-.47856.88015-.91049-.04639-.40668-.62793-.89829-.8833-1.19001-.38153-.43586-1.83686-2.0216-.29792-1.75293,1.10045.19213,2.21792.62842,3.27661.98161,2.36107.78768,4.71626,1.60557,7.06447,2.43088,1.20347.42297,2.38975.88827,3.57586,1.35718.59082.23355,1.98154,1.11505,2.58929.63376.33505-.26533.45122-.87019.58715-1.24803.19657-.54634.39059-1.09175.60858-1.63005.48224-1.19079.98029-2.37514,1.46941-3.5631.98984-2.404,1.90031-4.83625,2.82142-7.26701,1.8004-4.75118,3.71315-9.45901,5.57609-14.18508.9242-2.34457,1.89416-4.68041,2.76541-7.04498.27901-.75722.31122-1.24809-.49941-1.59763-1.04218-.44938-2.16002-.75556-3.22069-1.16511-4.55928-1.76046-9.18554-3.53481-13.906-4.81647-.62194-.16887-2.64993-.50055-1.63194-1.58165.16761-.17799.40998-.26129.57296-.45836.14375-.17381.21393-.38238.32849-.572.27461-.45456.66899-.82035,1.03106-1.20692.79084-.84437,1.48264-1.7602,2.23994-2.6271.77451-.8866,1.28635-2.03066,1.87392-3.04513.32005-.55259.63965-1.10545.95681-1.65971.1937-.33848.64314-.84947.59903-1.26286-.08602-.80647-1.85256-.85636-2.34598-1.35476-.77732-.78516.64916-1.69682,1.11327-2.22489.73518-.83649,1.44652-1.70304,2.15719-2.56042,1.51138-1.82341,2.49152-4.0293,3.3639-6.21109.23979-.59971.47944-1.19959.71754-1.79996.1279-.32252.35502-.75302.11508-1.08281-.56764-.7802-2.03851-.16486-2.73375-.70713-.6912-.53912.21513-1.99085.44325-2.60079.44234-1.18269.90233-2.36231,1.19272-3.59394.2845-1.20662.43063-2.4395.60482-3.66524.11723-.82491.34409-1.52384-.71039-1.50416-1.25438.02342-2.55932.25794-3.80458.41673-1.2007.15311-2.39638.35788-3.56808.66449-.45617.11937-.8973.24621-1.20129-.21778-.24085-.36762-.25882-.96785-.3571-1.38669-.08599-.36647-.13354-.98112-.55405-1.10496-.38152-.11236-.9941.19757-1.34067.31332-1.0865.36289-2.1671.7487-3.21429,1.21459-.57788.25709-1.14567.53798-1.69564.85055-.43304.24611-.8612.62217-1.34558.75608-1.01716.2812-1.53866-.88449-2.06414-1.53557-.34897-.43239-.533-.6991-1.03641-.34182-.41937.29764-.79419.67848-1.19237,1.00409-.89846.73474-1.82228,1.43427-2.63107,2.27078-.85019.87932-1.64885,1.80764-2.44074,2.73923-.46636.54862-1.39829,2.22548-2.28022,1.78234-.45645-.22935-.81471-.79043-1.19511-1.12798-.26692-.23685-.71862-.75412-1.11767-.70748-.89948.10514-1.00074,1.72304-1.78389,2.0783-.8104.36762-2.11423-.52002-2.82933-.85229-2.2367-1.0393-4.57149-1.80128-6.92272-2.53136-1.15729-.35935-1.22828-1.07488-.91997-2.13927.32552-1.12382.71106-2.23402.92133-3.38656.21062-1.15449.4525-2.31147.61559-3.47362.05941-.42341.21518-1.17093-.06817-1.53847-.25954-.33667-.9272-.23347-1.30015-.2492-.62209-.02623-1.24447-.05228-1.86689-.06946-.48673-.01343-1.02147.06553-1.50269-.00838-1.05114-.16145-.75752-1.22419-.66899-1.99996.28214-2.47234.6677-4.95512.48643-7.44864-.08774-1.20702-.27987-2.40528-.5549-3.58347-.13772-.58995-.31166-1.13884-.56491-1.68956-.18062-.39279-.31247-.92571-.79948-.99804-.49625-.0737-1.27441.1909-1.75604.32306-.55564.15246-1.08634.38176-1.61789.60118-.3656.15091-.86676.41412-1.21225.08226-.30404-.29205-.229-.89332-.24288-1.26704-.09155-2.46485-.20953-4.89556-.77202-7.30718-.2792-1.19702-.64876-2.35697-1.10725-3.49702-.15528-.38612-.30972-1.19178-.76029-1.33454-.41387-.13113-.99497.22086-1.3597.37693-.56494.24173-1.12742.48922-1.69105.73398-.316.13722-.7362.38601-1.09136.24697-.38278-.14985-.43046-.60639-.5124-.95434-.13159-.55875-.28975-1.10782-.477-1.65054-.73811-2.13929-1.65804-4.28244-2.96342-6.13999-.3529-.50218-.73977-.97435-1.13202-1.44572-.30715-.3691-.62443-.88061-1.03671-1.14306-.7741-.4928-1.68291,1.2156-2.05509,1.74993-1.36589,1.96097-2.54082,3.98351-3.55558,6.14997-.2667.5694-.51929,1.1456-.74955,1.73076-.15617.39689-.26227,1.04218-.64266,1.29806-.33732.2269-.70589.03926-1.02462-.1317-.47587-.25524-.93816-.52136-1.437-.73217-.66063-.27919-1.81546-.90968-2.31623-.12308-.60554.95119-.9445,2.25306-1.28532,3.32233-.75073,2.35535-1.17208,4.81151-1.39177,7.27035-.05042.56437.11364,1.96462-.55597,2.26121-.29826.13211-.68937-.0287-.96809-.13043-.51732-.18882-1.02445-.39554-1.55005-.56251-.57876-.18387-1.67681-.70115-2.2404-.23946-.29986.24564-.42636.73663-.54682,1.08416-.1946.56143-.35513,1.13473-.48939,1.71346-.55741,2.40279-.64741,4.84172-.7265,7.29506-.04065,1.26083-.10119,2.52112-.1497,3.78166-.03814.99105-.06948,1.60118-1.19619,1.62706-1.22115.02805-2.51461-.10949-3.72543.07406-.40964.0621-.53725.14889-.57145.57482-.04657.58003-.01341,1.18214-.01594,1.76422-.01071,2.46981.09029,4.91361.79817,7.28891.11294.37898.32796.87176.07915,1.23857-.24219.35706-.78557.39568-1.16058.50112-1.1763.33074-2.34489.70282-3.51102,1.06783-1.17864.36893-2.33922.76602-3.4779,1.24557-.82088.34571-2.07683,1.19903-2.88805.40997-.51487-.5008-.87632-2.32215-1.83828-1.85587-.47477.23013-.89587.74688-1.23784,1.13796-.28304.32369-.56766.7912-1.06214.64457-.46119-.13676-.79647-.88354-1.04803-1.25159-.32157-.47047-.64165-.94267-.96792-1.4099-.66845-.95726-1.41818-1.83087-2.26693-2.63308-.83438-.78863-1.72973-1.50856-2.62607-2.22472-.3102-.24784-.75604-.79356-1.19758-.64877-.38002.12462-.73326.84808-.94261,1.15016-.53845.77696-.84285,1.28663-1.77465.7642-1.05211-.58989-2.04859-1.16576-3.17137-1.61981-1.10906-.44851-2.30729-1.06364-3.47378-1.3319-.95884-.22051-1.02591,1.26657-1.18286,1.92221-.28569,1.19342-1.43839.73946-2.34755.53962-1.21347-.26674-2.42854-.57025-3.6628-.72432-.59059-.07372-1.1839-.12496-1.77516-.19306-.36681-.04225-.97645-.1996-1.31527.01179-.73981.46156-.16554,2.2463-.06936,2.90595.0871.59736.20617,1.19998.2571,1.80167.04729.55872.0441,1.04688.22866,1.58689.36899,1.0796.78438,2.14062,1.13792,3.22963.22749.70072.69155,1.62813-.28876,1.90174-.58808.16414-2.31094.06025-2.38525.89588-.04731.53204.35709,1.28997.51322,1.80034.17704.57868.35792,1.15636.55571,1.72834.39898,1.1538.89768,2.24117,1.4773,3.31454.54506,1.00938,1.04978,2.03399,1.73455,2.95871.70642.95396,1.51672,1.81531,2.28693,2.71575.28641.33484.69134.73973.50899,1.2179-.1582.41487-.67608.56441-1.04659.71952-.50424.21111-1.53065.40195-1.43788,1.1185.05582.43114.38573.89531.58539,1.26595.27713.51446.57099,1.01971.84814,1.53414.54556,1.01262,1.14273,1.94758,1.81509,2.882.73578,1.02258,1.47704,1.99169,2.32966,2.91982.43449.47297.86929.94564,1.30293,1.41939.30282.33082.89007.77336,1.00182,1.22903.12628.51491-.37254.67196-.76332.80731-.59054.20454-1.1893.38856-1.78369.58157-1.22406.3975-2.44748.79697-3.67143,1.19481-1.15559.37562-2.30782.75223-3.44439,1.18276-1.16603.44169-2.37752.70901-3.56003,1.09805-1.07316.35306-2.08093.86766-3.13369,1.27526-.60693.23498-1.2149.46728-1.82125.70374-.39542.15421-1.20443.31095-1.48982.64088-.29186.3374.08327.87568.22399,1.21351.22155.53186.43702,1.06582.64061,1.60482.45413,1.20231.89644,2.40907,1.34423,3.61374.88501,2.38086,1.80622,4.74746,2.73627,7.11103,1.81345,4.60858,3.61582,9.21853,5.38206,13.84484.87536,2.29283,1.87096,4.53702,2.75799,6.82507.24413.62972.47922,1.26325.73218,1.88952.13688.33888.24857.73091.65473.79071.44607.06567,1.08541-.36728,1.47471-.53786.53145-.23287,1.06102-.47001,1.59238-.70307,2.25158-.98755,4.56955-1.77722,6.90432-2.54215,1.21043-.39656,2.42882-.75624,3.64595-1.13054,1.09876-.33791,2.08164-.83561,3.2291-.4986-.20965.52485-.48518.86391-.86146,1.28941-.31421.35531-.8466.77728-1.01439,1.22947-.29562.79668,1.02391,1.33752,1.54133,1.67622.76496.50074,2.12015,1.08834,1.10186,2.04192-.7349.68821-1.55605,1.2748-2.27723,1.9857-1.54388,1.52186-2.85134,3.24308-4.1344,4.98448-.35645.48378-.70994.96974-1.06193,1.45677-.24484.33876-.66805.74136-.78202,1.14242-.22249.7829,1.65599.90475,2.15746.99732.9563.17656,1.89752.07163,2.84577.19066.90589.11373,1.79944.33592,2.69665.49248,1.97102.34395,4.09494-.11641,6.09009-.06229.51182.01387,1.023.04438,1.53438.06888.36515.01749.944-.06647,1.26846.14251.55225.35571.04399,1.31692-.10461,1.79216-.17029.54461-.34688,1.08725-.51579,1.6323-.09561.3085-.37414.83754-.28249,1.17275.15925.58251,1.19703.38851,1.66141.40292,4.10927.12757,8.22164.13812,12.33004-.07144,1.13582-.05793,2.25426-.18331,3.38124-.32563.9078-.11465,1.79403-.14344,2.69641-.33334,1.02558-.21582,2.08499-.38288,3.0907-.67534.77725-.22604,1.64582-.67125,2.47152-.55569.55151.07718,1.01767.47593,1.47822.76187.41791.25947.83928.51328,1.2575.77224.75888.46986,1.5088.95502,2.28519,1.39595.91304.51855,1.86394.96822,2.81594,1.40984.83268.38626,1.76439.99404,2.66611,1.17561.97536.19641,1.93272-.49468,2.76739-.91301.92748-.46484,1.8579-.92451,2.78038-1.39923,1.79991-.92628,3.47773-2.03115,5.2296-3.03775.99243-.57023,1.60398-.39586,2.59268.01573.88781.36959,1.84554.50442,2.78316.68597.97025.18787,1.91311.26351,2.89108.38682,1.02557.1293,2.03076.34586,3.06382.43562,4.12132.35804,8.28895.26358,12.4028-.09189Z" style="stroke-width:0px;"/><path id="c" d="M76.31452,54.32063c3.46923,0,6.9272.16336,10.39175.34286,1.71814.08901,3.38996.29907,5.08425.59106.76406.13167,1.49087.07827,2.2464.16686.38278.04488.6968.20884,1.05356.32907.44568.15021.82267.09119,1.28099.0938.74181.00423,1.49914.24316,2.21643.41161.86963.20422,1.74174.39754,2.61263.59631,1.68108.38368,3.3428.81725,4.99078,1.32517,3.15024.97093,6.26714,2.13939,9.00423,4.01188,1.18905.81346,2.77926,1.85897,3.30757,3.26308.2773.73698.31459,1.56944.46794,2.33913.1744.8753.34786,1.72761.43595,2.61598.35783,3.60814.67734,7.18967.78127,10.81634.05119,1.78589-.16656,3.52725-.22036,5.30532-.0147.48581-.22952,1.43345.1732,1.82604.4657.45398,1.56678.45327,2.17614.57345,3.5337.69694,6.98071,1.65987,10.43682,2.65469,3.45886.99562,6.96687,1.89669,10.36307,3.09367,1.60018.56398,3.1828,1.17685,4.78122,1.74607.8203.29212,1.64171.58132,2.45994.87923.50578.18415,1.5645.38448,1.80063.93957.24605.57839-.25362,1.44327-.46828,1.9579-.36794.88212-.74022,1.76243-1.10987,2.64382-.65121,1.55271-1.1792,3.13214-1.78279,4.69933-1.30876,3.39821-2.69857,6.76667-3.96753,10.18007-1.22127,3.28505-2.57155,6.52822-3.75672,9.82492-.38977,1.08419-.70453,2.41039-2.14688,2.19023-.77574-.1184-1.54742-.47376-2.28914-.71867-.91813-.30316-1.83807-.60097-2.75681-.90231-3.39749-1.11435-6.78194-2.30178-10.25984-3.14191-3.47628-.83974-6.95942-1.67539-10.46982-2.36313-.56258-.11021-1.46949-.44615-2.04785-.27024-.53227.16188-.71422.92129-.91164,1.37258-.30949.70748-.61143,1.4233-1.03334,2.07322-.20023.30844-.40973.54625-.55087.88321-.17422.41593-.34734.81872-.5724,1.21137-.79759,1.39148-1.85495,2.64891-2.79187,3.94751-.9947,1.37867-1.98849,2.78395-3.19164,3.99138-4.78811,4.8051-9.78522,9.42094-15.72055,12.78482-1.50891.85519-3.0564,1.64495-4.59999,2.43524-1.67253.85632-3.15669.70907-4.80308-.12265-1.51572-.76572-3.04917-1.45882-4.4964-2.35395-1.46615-.90683-2.91202-1.84789-4.37136-2.76583-1.49262-.93888-2.81444-2.13875-4.22571-3.19597-1.29316-.96875-2.48238-2.05515-3.63804-3.18245-1.21979-1.18986-2.45697-2.37013-3.63714-3.59933-1.21164-1.26196-2.21643-2.65323-3.3031-4.01729-1.02372-1.28503-2.11047-2.50178-3.02979-3.86802-.95553-1.42005-1.77383-2.92412-2.62886-4.40517-.30894-.53512-.50491-1.26159-1.22137-1.23483-.84387.03152-1.76259.39719-2.5818.59639-1.71762.41766-3.43463.83754-5.15353,1.24994-3.54557.85068-7.04132,1.84087-10.52034,2.93136-1.67312.52443-3.33287,1.08661-4.99199,1.65346-.7808.26676-1.5561.55409-2.34039.80979-.55698.1816-1.24635.35917-1.83128.1874-.40436-.11875-.61339-.4153-.78462-.78354-.29016-.62402-.51671-1.29451-.77375-1.93358-.68006-1.69077-1.34611-3.38714-2.03462-5.07451-1.32821-3.25512-2.5814-6.52885-3.78171-9.83326-1.24829-3.43647-2.50047-6.87503-3.83758-10.27808-.3108-.79101-.63538-1.5768-.94365-2.36875-.14317-.36779-.40197-.89241-.26229-1.2994.126-.36716.53792-.53433.86588-.67456.83503-.35703,1.70748-.64147,2.56088-.95152,3.32089-1.20652,6.64678-2.45448,10.03852-3.44865,3.41016-.99957,6.84569-1.91443,10.27502-2.84548,1.76684-.47969,3.53506-.95429,5.30259-1.43139.55961-.15105,1.42626-.2016,1.89162-.57182.3716-.29563.22991-.91342.20922-1.32241-.09041-1.78806-.23788-3.58348-.20699-5.37481.03205-1.85882.19245-3.7302.3314-5.58392.26548-3.54164.92593-7.0092,1.60835-10.48958.30875-1.57465,1.79349-2.29802,3.05491-3.10885,1.32038-.84874,2.6957-1.61188,4.11526-2.2817,6.15853-2.90587,13.01906-4.46221,19.769-5.12666,3.32016-.32683,6.62973-.45631,9.96016-.6209ZM146.74394,100.98227c.03057-.54248-.40581-.66517-.83672-.79844-.55365-.17123-1.10187-.34882-1.64977-.53831-1.16987-.4046-2.33933-.81053-3.51343-1.20278-2.35364-.78631-4.72737-1.45004-7.12524-2.08384-2.46258-.6509-4.87225-1.49406-7.35651-2.06424-5.03786-1.15627-10.06686-2.26453-15.16201-3.14487-5.10057-.88128-10.22499-1.53749-15.36646-2.12601-2.5553-.2925-5.0891-.44106-7.65648-.57277-1.29463-.06641-2.58686-.18609-3.88253-.23134-1.26705-.04426-2.54774.1037-3.81861.11076-5.11717.02845-10.24521-.05254-15.34646.41529-5.1687.47402-10.31177,1.06827-15.44551,1.83628-5.07187.75875-10.16541,1.69614-15.12495,3.00396-1.24224.32758-2.48215.66397-3.72455.99092-1.2348.32495-2.49997.54356-3.71521.93773-2.36247.76627-4.79907,1.2714-7.15851,2.04645-2.38996.78508-4.77656,1.59618-7.1629,2.39474-.7714.25814-.95157.43665-.68742,1.23163.40344,1.2142.87431,2.40818,1.3261,3.60494,1.80529,4.78204,3.58446,9.57169,5.41687,14.34343.45757,1.19155.91528,2.38305,1.37268,3.57467.2263.58956.39344,1.28717.69956,1.83871.23543.42417.48319.34228.90242.19967,2.3707-.80637,4.7126-1.70452,7.11109-2.42605,4.87606-1.46686,9.86896-2.55853,14.80729-3.79219,2.49669-.62371,5.00247-1.12297,7.53135-1.60996,2.48809-.47914,4.9896-.73718,7.49962-1.063,5.12022-.66464,10.18684-1.13383,15.35202-1.22353,2.56066-.04448,5.14899-.20823,7.70769-.14441,2.54657.06351,5.09834.17375,7.63584.39204,2.57017.2211,5.14088.44169,7.70624.71416,1.2688.13475,2.53463.38717,3.79069.60905.56727.1002,1.13249.24549,1.70986.14528.55435-.0962.95328-.14497,1.51666-.03424,2.41657.47495,4.76595,1.10138,7.20918,1.43637,2.50411.34334,4.98319.94917,7.44268,1.52384,2.44438.57114,4.84662,1.29528,7.27685,1.92098,2.43305.62643,4.74046,1.42455,7.10114,2.27045,1.17157.41982,2.36609.88364,3.56651,1.21148.5606.15311.79765-.0011,1.02883-.5197.23253-.52166.4195-1.06778.62553-1.60036.93769-2.42388,1.87544-4.84774,2.8132-7.27159.94761-2.44935,1.89365-4.89935,2.85259-7.3443.90741-2.31352,1.94039-4.60523,2.73076-6.96091ZM76.10299,59.27635c-1.93669.09155-3.87478.16336-5.81088.26572-3.91125.20677-7.84119.80381-11.67468,1.60025-3.69736.76816-7.42893,1.8334-10.79157,3.58258-1.29898.6757-3.28177,1.52796-3.74982,3.03872-.57428,1.85364-.82279,3.90213-1.05656,5.82248-.49466,4.06353-.67074,8.07666-.52561,12.16513.01601.45108-.1603,1.40371.40265,1.55917.22666.06259.58835-.04575.80255-.07958.52412-.08276,1.04761-.16995,1.57092-.2577,1.96997-.3303,3.93166-.70984,5.90776-1.00321,1.0224-.15179,2.04829-.28206,3.07793-.37378.32782-.0292.98648.05582,1.27104-.1082.23941-.13799.23204-.11269.14526-.39657-.13485-.44115-.61413-.91636-.87484-1.29638-.26738-.38973-.52394-.78572-.77655-1.18514-.5208-.82347-1.03241-1.65269-1.54827-2.47926-.5186-.83096-1.07057-1.64138-1.57849-2.47885-.26632-.43912-1.01963-1.33654-.69187-1.87976.29269-.4851,1.66452-.88426,2.17265-.59322.36408.20854.56235.68411.78052,1.02193.22326.34571.44978.68928.67209,1.03562,1.08896,1.69646,2.17558,3.39502,3.24578,5.10338.26073.4162.51938.83471.73682,1.27567.17173.34827.29341.72389.58624.99516.57668.53419,1.43427.31095,2.12942.19471,1.9772-.33063,4.06756-.30495,6.07053-.34701,1.94772-.0409,3.85378-.17163,5.7901-.38643,1.00783-.1118,1.91706.18916,2.91637.12488.92347-.05941,1.8419-.05689,2.76426-.1023.51198-.0252,1.02308-.0835,1.53583-.0388.43147.0376.79988.2315,1.21588.29711.85608.13502,1.85345.00304,2.72387.01414,4.08478.05213,8.15084.25973,12.22856.49827.58397.03416,1.17029.05474,1.75238.11374.31827.03226.66657.12671.98689.072.70233-.11996,1.04475-1.07632,1.39876-1.60988,1.13309-1.70776,2.27955-3.4072,3.38827-5.13097.55485-.86265,1.05843-1.78974,1.67549-2.60851.46667-.61923.97731-.49991,1.62489-.19704.63529.29713,1.11539.50938.75901,1.26822-.36688.78118-.91708,1.49596-1.38905,2.21412-1.06769,1.62462-2.13617,3.24964-3.26834,4.83032-.25592.35729-1.34814,1.40156-.59503,1.63187.42268.12926.91761.12752,1.35371.22679.33286.07577.65204.17578.99325.20809,1.95377.18498,3.83742.54337,5.76971.89159,1.02259.18428,2.04422.37378,3.06682.55796.50968.09181,1.47158.52836,1.63395-.17096.12114-.52176.03906-1.15617.08243-1.69378.03556-.44071.06762-.88139.09001-1.32299.05139-1.01363.06253-2.02898.05156-3.04373-.02233-2.06595-.06075-4.15314-.31561-6.20432-.24624-1.98177-.50074-3.96254-.77106-5.94119-.13926-1.01927-.34447-1.58465-1.19473-2.22432-.68547-.51568-1.47911-.89014-2.23968-1.27983-3.42897-1.7569-7.03058-2.94761-10.77322-3.83558-7.79494-1.8494-15.76277-2.34116-23.7483-2.34029ZM89.86264,123.38075v.00882c1.90893,0,3.82357-.04308,5.7317.01906.66564.02168,1.37601-.08517,1.53806.67849.18863.8889.13894,1.94723.14833,2.85114.00913.87949-.60357,1.21128-1.42413,1.36058-.40773.07419-.68665-.01816-1.06337-.13126-.40438-.12141-.80966-.10642-1.23027-.11476-1.87746-.03722-3.763-.12798-5.63994-.10673-1.0103.01146-2.01943.03337-3.02918.06705-.67515.02251-1.25326-.03954-1.77728-.51245-.63448-.57259-1.04638-1.47649-1.50194-2.18984-.49705-.77832-.99469-1.55679-1.50779-2.32465-.20052-.30008-1.17803-2.09678-1.60214-1.9816-.23878.06485-.54497.75784-.659.93911-.25574.40652-.51158.81297-.7674,1.21945-.53487.8499-1.06964,1.69988-1.60308,2.55067-.39506.6301-.75042,1.49459-1.32677,1.97098-.65655.54265-1.74122.35329-2.52538.33825-.88155-.01692-1.76306-.03655-2.64472-.04661-1.89266-.02159-3.78245.06908-5.67567.03447-.65773-.01201-1.98166.20167-2.53207-.2742-.46522-.4022-.35176-1.25077-.37838-1.79499-.02737-.5595-.3085-1.77627.12982-2.25341.37747-.41089,1.27584-.27875,1.76681-.29758,1.88815-.07248,3.78347-.04715,5.67278-.04922,1.87206-.00205,3.75735.08268,5.62789.02722.90606-.02687,1.12343-.53487,1.58736-1.22192.46259-.68508.89262-1.3951,1.33342-2.09441.42374-.67225,1.12576-1.39174-.04051-1.50828-.83766-.0837-1.67065-.05999-2.50961-.0179-1.90725.09567-3.81448.21029-5.71915.34821-3.77645.27347-7.51146.58633-11.25225,1.18931-1.02029.16447-2.03996.33293-3.06164.4886-.43495.06627-1.70719.00739-1.93938.50718-.14036.30213.27209.80963.41062,1.07188.20831.39439.41543.78941.62866,1.18117.41045.75412.84915,1.4884,1.33114,2.19895,2.09516,3.08864,4.42876,5.92871,7.11697,8.51487,2.64741,2.54692,5.46964,4.77403,8.49577,6.85418,1.4944,1.02724,3.02967,1.92782,4.64636,2.74726.82864.42001,1.65021.85375,2.47277,1.28549.74046.38865,1.63002,1.05478,2.47903,1.15475.8393.09882,1.71756-.56815,2.4206-.94976.81329-.44145,1.6045-.92736,2.39909-1.40149,1.61524-.96379,3.19579-1.97805,4.74903-3.03883.77212-.52731,1.53831-1.06327,2.30066-1.6046.73428-.5214,1.35217-1.13653,2.02717-1.72717,1.32784-1.16188,2.57389-2.38975,3.74135-3.71383,2.5038-2.83969,4.87518-5.76498,6.77203-9.04893.47007-.81381.93267-1.63192,1.39051-2.45266.35773-.64128.84671-1.17038-.1244-1.35367-1.76758-.33361-3.61357-.53671-5.39941-.76403-3.73209-.47505-7.473-.88793-11.22897-1.11798-1.90436-.11665-3.81018-.21987-5.71573-.31531-.50283-.02518-1.0058-.04792-1.50901-.06422-.25504-.00826-.71481-.09129-.96423.03468-.5907.29834.11858,1.07325.33397,1.41701.48719.77758.99012,1.54512,1.48846,2.31555.55855.86351.78329,1.10147,1.84083,1.09934,1.92387-.00388,3.84774-.00139,5.7716-.00139Z" style="stroke-width:0px;"/><g id="d"><path d="M63.74843,40.77445c.08694,1.9203.14528,3.41859.22712,4.91559.03375.61715.11873,1.23148.17903,1.84722.0292.29818.07666.59658.07787.89503.00197.48339-.23307.69635-.71506.65418-.19605-.01715-.39608-.06994-.57888-.14438-1.19674-.48737-2.47053-.64754-3.72709-.87214-.32376-.05786-.67561-.01423-1.00545.03908-.18958.03064-.3627.16149-.30202.43026.16187.71706.29133,1.442.47197,2.15409.17641.69543.38469,1.38392.60779,2.06604.1943.59407.07795.85017-.52722,1.02215-.92756.26359-1.47721-.0845-1.73441-1.0307-.44956-1.65389-.66951-3.32596-.54114-5.04112.02821-.37688-.03192-.75971-.01653-1.13838.01893-.46567.14054-.61581.59636-.6729.4541-.05687.92485-.11945,1.37261-.06042,1.04747.1381,2.08567.34674,3.12718.52941.09795.01717.19161.05758.28909.07875.45705.09922.59817-.01153.55376-.47896-.06234-.65622-.17025-1.30845-.22186-1.96528-.07191-.91532-.12798-1.83275-.15665-2.75035-.02431-.77841-.02922-1.55977.0087-2.33731.07689-1.57633.17634-3.15186.29155-4.72589.05099-.69681.14383-1.39215.25186-2.08281.14722-.94117.60341-1.19888,1.53056-.96041,1.49224.38381,2.79089,1.16159,4.09325,1.94108.24582.14713.53057.22921.79736.3413.0715-.29884.20389-.59749.20479-.89654.00677-2.25833-.07263-4.51854-.00518-6.77458.05945-1.98858.47544-3.922,1.37401-5.72674.39426-.79183.90281-.97607,1.70788-.59757.93322.43875,1.73596,1.06244,2.50606,1.73503.48937.4274.64373.40408.80213-.21272.67808-2.64026,2.00194-5.00226,3.19639-7.41669.39628-.80104.93946-1.53244,1.44585-2.27496.3824-.56072.79447-.5653,1.18151.00941.79402,1.17902,1.46963,2.42496,1.99961,3.74884.81042,2.02436,1.54058,4.07304,2.02642,6.20379.12576.55153.30094.60026.72251.23329.88454-.77,1.85232-1.38432,2.99013-1.71453.8087-.2347,1.07981-.13363,1.42835.62463.53459,1.16303.67409,2.41482.82682,3.66734.29136,2.38948.16507,4.79129.23938,7.18695.01414.45575-.08014.91414-.10964,1.37227-.01666.25876-.0234.52141.00142.77883.03686.38212.16294.44453.51401.25963.56561-.29791,1.13524-.59099,1.68224-.92082.84812-.5114,1.76583-.8402,2.71023-1.10984.81698-.23326,1.13217-.06501,1.42908.71415.40518,1.06329.44775,2.18944.56388,3.29691.22951,2.18861-.0821,4.34669-.48467,6.49345-.24304,1.29608-.48541,2.59227-.72811,3.88841-.0147.07851-.03526.1564-.04354.23557-.05697.54513.10138.68767.6432.59582.70803-.12002,1.41349-.28537,2.12681-.33599.79349-.0563,1.59715-.04338,2.39159.01031.66189.04473.82247.26134.79603.94309-.06782,1.74921-.41221,3.44895-.97229,5.1056-.11521.34077-.23716.67994-.37317,1.01283-.19529.47799-.51311.67744-1.02441.66408-.07949-.00208-.15892-.0157-.23789-.02729-1.10133-.16164-1.30216-.53887-.79301-1.53984.56569-1.11212.96067-2.28323,1.23746-3.49527.1487-.65118.03656-.79578-.64109-.79061-.41637.00317-.84166.03679-1.24645.12908-1.1673.26614-2.32625.56892-3.48842.85755-.07761.01927-.1539.04473-.23221.06025-.71692.14216-.98255-.10735-.84878-.8338.43414-2.35769.94506-4.70343,1.30196-7.07252.34185-2.26919.62087-4.55367.41171-6.86655-.05967-.65979-.28116-.78059-.83406-.46932-.88734.49956-1.75978,1.02689-2.62458,1.56488-.91625.56999-1.81373,1.17008-2.72495,1.74831-.2535.16087-.52881.32712-.83065.10666-.29275-.21381-.23032-.52477-.1941-.82467.2442-2.02167.54029-4.03903.71011-6.06695.09615-1.14821.02667-2.31645-.04483-3.47092-.08143-1.31495-.24598-2.62484-.37989-3.93637-.02432-.23819-.06436-.47604-.11588-.70992-.10344-.46958-.28427-.5575-.7308-.34964-.18015.08387-.3502.19362-.51456.30658-.69179.47542-1.37929.95709-2.06939,1.435-.13136.09097-.26098.18764-.40236.2604-.51761.26639-.89405.14448-1.09543-.40701-.23966-.65627-.42838-1.33118-.63776-1.99845-.62211-1.98264-1.23445-3.96843-1.87183-5.94615-.15251-.47323-.36052-.93402-.59157-1.37509-.28044-.53538-.55051-.54715-.85365-.03482-.33543.5669-.65671,1.14779-.92022,1.75053-.69639,1.59286-1.38015,3.19207-2.02456,4.80648-.32517.81467-.55819,1.66645-.8254,2.50384-.27566.86392-.68097,1.01059-1.41026.46222-.73367-.55166-1.4432-1.13537-2.16572-1.70197-.12554-.09845-.25573-.19555-.39633-.26938-.4509-.23679-.73033-.13612-.84569.36338-.14356.62164-.2927,1.25432-.3221,1.88768-.08797,1.89536-.16033,3.79335-.16095,5.69034-.00072,2.19593.08594,4.39181.12292,6.58792.00615.36534.11034.81817-.33378,1.00189-.41391.17122-.71074-.14132-.99794-.39472-1.41301-1.24668-2.89837-2.3906-4.59719-3.23067-.05375-.02658-.10646-.05528-.16029-.08172-.69727-.34253-.84225-.26917-.96981.51981-.07334.45362-.15765.90946-.17813,1.36694-.08134,1.81698-.1395,3.635-.19078,5.03159Z" style="stroke-width:0px;"/><path d="M24.47586,56.59443c.01758.40117.21109,1.24528-.14759,1.55916-.41619.36421-1.09116-.23999-1.41935-.45964-1.25128-.83747-2.55631-1.62096-3.92382-2.25426-.75083-.34771-2.95231-1.54855-2.70764.13492.21367,1.47022.91123,2.98767,1.52978,4.32553.30677.66351.63109,1.32469.99636,1.95813.26096.45255.98341,1.23242.92261,1.79333-.05044.46538-.6168.47212-.98671.52471-.76683.10904-1.66186.10838-2.38677.40025-1.1186.45037.192,2.17672.53481,2.82119.69349,1.30373,1.4856,2.56047,2.43009,3.69806.97905,1.17923,1.93003,2.39678,2.95533,3.53601.49065.54517,1.02196,1.04989,1.54971,1.55851.44547.42933,1.29614,1.04218,1.46837,1.6689.17813.64819-.70171.614-1.12931.69747-.81936.15996-1.70164.28843-2.49069.56522-.5801.20349-.67217.52516-.34786,1.03594.43917.69167.97978,1.34038,1.46975,1.99729.94153,1.26234,1.91613,2.49345,3.02733,3.61196.5287.53219,1.07503,1.0464,1.61134,1.57083.41346.4043.98636.88562.277,1.29204-1.40391.80436-2.54292-.77806-3.41125-1.6332-1.09389-1.07726-2.12891-2.22046-3.09074-3.41739-.9734-1.21132-1.82926-2.51158-2.59092-3.86572-.22499-.4-.57998-.85992-.18302-1.24444.46536-.45078,1.42259-.6853,2.00948-.9301.38-.1585,1.06538-.25044.90462-.74943-.18818-.58407-1.08779-1.20387-1.50648-1.63297-1.05962-1.08598-2.02418-2.26408-2.87984-3.51706-.85198-1.24758-1.58704-2.57043-2.20723-3.94776-.29254-.6497-.5601-1.31062-.80547-1.97952-.17978-.49011-.70238-1.39541-.51157-1.92367.17273-.47821.98006-.59272,1.39435-.71824.3703-.11219.74383-.22734,1.11812-.32533.2346-.06141.69401-.06204.81753-.31539.21383-.43857-.53872-1.467-.71503-1.86479-.33713-.76066-.62913-1.54076-.89253-2.32978-.50497-1.51261-.90522-3.02941-1.13042-4.60917-.0576-.40404-.18074-.91172.2937-1.08151.56491-.20217,1.55198.1044,2.11909.22156,1.41076.29145,2.84824.78736,4.14863,1.40453.31166.14792.61732.30807.91519.48214.21823.12753.58081.48525.83659.52689.60262.0981.39911-1.09656.41433-1.50369.02178-.58246-.02843-1.37177.24302-1.90465.26205-.51443.72609-.37035,1.19712-.22299,1.37396.42984,2.80442,1.26437,3.94293,2.14328.58392.45077,1.05225,1.00723,1.58759,1.50881.60285.56484.80501-.179,1.11807-.69895.26879-.44643.6488-1.32562,1.2247-1.44043.61824-.12326,1.27719.77896,1.66076,1.1551,1.10127,1.07993,2.01757,2.27483,2.93471,3.51024.43768.58957.85377,1.18949,1.20647,1.83441.29784.54462.85035,1.30106.95144,1.91391.10691.64816-.83944,2.23475-1.59895,1.61817-.473-.38399-.72539-1.3798-.99041-1.91266-.34544-.69457-.72187-1.37357-1.12678-2.03521-.37415-.61139-.76059-1.23549-1.20207-1.80122-.17332-.2221-.38083-.37109-.58269-.56381-.21713-.2073-.44027-.74883-.68636-.87757-.81587-.42683-.97158,2.43554-1.50111,2.79123-.54857.36849-1.01866-.34136-1.33089-.68253-.49705-.54314-1.00437-1.07752-1.53716-1.58589-.53188-.50751-1.08837-.98967-1.67929-1.42746-.39063-.28941-1.0161-.87316-1.51964-.94905-.77345-.11656-.56564,2.08412-.56564,2.54545-.00856.0001-.01712.00019-.02568.00029Z" style="stroke-width:0px;"/><path d="M136.71023,54.04864c-.02521.37462-.32262,1.61566.00763,1.89463.34315.28986,1.13222-.37097,1.4429-.52825,1.33937-.67804,2.76839-1.17001,4.23607-1.48239.7333-.15608,3.37188-.94327,3.24154.47368-.12926,1.40517-.71427,2.94293-1.18939,4.26296-.50517,1.40351-1.26081,2.60982-1.91399,3.93367-.22948.46511-.18552.67759.31078.86273.71915.26827,1.50797.34726,2.23273.60622,1.33065.47546.34248,1.91109-.05165,2.79915-.64841,1.46105-1.38268,2.91651-2.28885,4.23665-.90048,1.31187-1.99972,2.5034-3.05164,3.69372-.51393.58154-1.03286,1.15862-1.54937,1.73785-.27905.31295-1.17043.97584-.57158,1.31722.68897.39278,3.0098.41404,2.87115,1.587-.07002.59237-.64633,1.24744-.96346,1.7315-.42634.65078-.87517,1.28744-1.34449,1.90792-.86436,1.14274-1.80324,2.23047-2.8213,3.23913-.48305.47859-.98314.93998-1.50041,1.38141-.53249.4544-1.14965,1.1082-1.83391,1.30868-.41341.12113-1.37754.06885-1.59088-.40794-.22734-.50812.71388-1.1221,1.0361-1.41305.51549-.46545,1.09843-.84084,1.6205-1.29723.58444-.51091,1.10161-1.09294,1.61023-1.67758.97047-1.11548,1.99589-2.25776,2.77149-3.52296.21731-.35447.34036-.60404-.04179-.8642-.5652-.38479-1.46209-.44441-2.11663-.56435-.45057-.08257-1.54192-.03507-1.83595-.46091-.35-.50692.81732-1.32891,1.11479-1.61572,1.11902-1.07895,2.20932-2.19034,3.29867-3.29911,1.08759-1.10697,2.08497-2.30693,2.9992-3.56041.85893-1.17768,1.75809-2.47593,2.29061-3.84221.44348-1.13783-.48028-1.34908-1.4488-1.4693-.55522-.06891-1.44662.02954-1.91698-.32927-.48142-.36724-.11747-.91137.12804-1.31054.81434-1.32395,1.62401-2.60582,2.27824-4.02096.27368-.59197,1.83002-3.18391.96133-3.69988-.4373-.25975-1.3905.19605-1.83163.3331-.71241.22133-1.40566.49885-2.08125.81468-.67849.31718-1.33777.67439-1.97729,1.06408-.53057.32329-1.15006.93291-1.76391,1.07939-.50874.1214-.6785-.24969-.71621-.70169-.07129-.85454.11083-1.74461.09212-2.60564-.01204-.55399-.09195-.93647-.7101-.71655-.68607.24408-1.32894.79022-1.89684,1.23196-1.22887.95585-2.14042,2.13268-3.24579,3.20277-1.20589,1.1674-1.41448-1.16514-1.71809-1.91354-.19282-.47528-.35856-.83904-.83856-.49378-.61496.44234-1.14393,1.16355-1.62812,1.74071-1.01142,1.20564-1.86481,2.52484-2.73194,3.83506-.26657.40277-.64446,1.32815-1.23543,1.28684-.52351-.0366-.99791-.89199-.99472-1.36701.00402-.59827.48335-1.20783.79061-1.68938.4197-.65778.88709-1.28463,1.38211-1.88742.98251-1.1964,2.07505-2.29941,3.16482-3.3971.46874-.47215.97126-1.10514,1.57462-1.41133.72265-.36673,1.1238.48319,1.45465,1.00272.18546.29126.52781,1.26326.94408,1.23637.22711-.01467.56395-.45252.70633-.58407.27574-.25474.55748-.50311.8474-.74163,1.12387-.92462,2.35248-1.65069,3.71659-2.16068.41832-.15639,1.30761-.65876,1.75677-.51045.55676.18383.50218,1.28712.56993,1.73531-.01702.00315-.03404.0063-.05106.00944Z" style="stroke-width:0px;"/><path d="M117.59853,132.66886c1.94602,1.34911,3.8993,2.56595,5.57167,4.26438.8387.85176,1.65435,1.72711,2.44863,2.62034.38815.43652.77208.87677,1.15605,1.31695.23928.27429.73135.68742.57231,1.10648-.14905.39277-.71969.38936-1.06005.43613-.64513.08865-1.2875.19585-1.9317.2908-1.30664.19257-2.5927.23366-3.90945.28066-2.50769.0895-5.04981.15749-7.54209-.20249-.46452-.0671-1.03825-.30652-1.5018-.30549-.63076.00141-.35136.5214-.19063.88318.47763,1.07514.98035,2.15484,1.32194,3.28282.1114.36787.36621.95927.13512,1.32771-.28026.44681-.98415.38256-1.43342.38477-1.25226.00621-2.5048.02613-3.75705.0131-2.51495-.02621-5.04294-.202-7.53823-.5162-1.25334-.15781-2.50144-.36037-3.73712-.62351-.59604-.12693-2.63265-.46043-1.69718-1.44665.77848-.82072,2.13669-.37412,3.10172-.25723,1.21132.14675,2.41594.32416,3.63506.36612,1.26357.04349,2.52546.14442,3.79049.13604,1.22293-.0081,2.39533-.20168,3.61354-.12649.41829.02583.95892.07059.86191-.48444-.09317-.53312-.46893-1.13615-.74425-1.59357-.29848-.49588-.62812-.97471-.95249-1.45383-.3132-.46261-.80403-.97815-1.00221-1.50063-.44273-1.1672,1.98974-.56055,2.56353-.49972,1.32197.14017,2.64375.27923,3.96897.38552,2.50767.20112,4.97976.24041,7.492.10053.39472-.02199,2.96145.06612,2.90315-.46361-.03608-.32779-.94485-.87579-1.17914-1.06519-.48902-.39533-.97771-.79104-1.46521-1.18827-1.88249-1.53387-3.74267-3.0229-5.85013-4.23829-.44044-.254-2.64914-1.27356-1.53377-1.82572.43385-.21478.99845-.31144,1.45728-.46815.59354-.20271,1.18729-.40482,1.77899-.61286.41535-.14602,2.60969-.66363,2.01507-1.41407-.20555-.25941-.7449-.42444-1.0279-.58406-.56236-.3172-1.12844-.62883-1.70915-.91141-1.06587-.51866-2.15936-.79002-3.27382-1.16196-.36652-.12233-.88939-.25116-1.01645-.67-.12568-.41435.24168-1.05306.52812-1.32677.39997-.38219.81817-.1674,1.27347-.00867.57873.20178,1.16388.38747,1.72639.63248,1.12636.49058,2.21465,1.0978,3.28685,1.69566,1.08121.60289,2.09252,1.25585,3.06004,2.02976,1.21611.97274-.10857,1.44034-1.02677,1.8768-1.06043.50407-2.1458.96728-3.18228,1.51904Z" style="stroke-width:0px;"/><path d="M50.52027,148.56387c-.72226,0-1.44443.01991-2.16671.01339-.52282-.0047-1.25126.06965-1.74875-.15948-.80288-.36977-.22235-1.5641-.03186-2.15164.22152-.68328.4309-1.41328.74831-2.05915.16792-.34169,1.02468-1.15427.36179-1.38469-.49353-.17155-1.4795.13002-1.98741.19046-.76788.09138-1.51318.17-2.28675.19403-3.02895.09417-5.9911.08134-9.00796-.25315-.6024-.0668-2.81722.00875-2.83965-.9266-.00953-.39722.37073-.81703.59372-1.10788.45472-.59306.958-1.14669,1.45169-1.70698,1.08209-1.22808,2.20368-2.37249,3.45101-3.43541,1.23099-1.049,2.68875-1.79988,3.90261-2.84375-.928-.64197-2.08278-.92259-3.09379-1.44445-.8371-.43209-2.2451-.97519-1.18012-1.96584,1.79499-1.66969,4.05033-2.60946,6.23353-3.6296.72306-.33787,1.90093-1.17753,2.74391-.8292.75522.31207,1.03986,1.48893.25203,1.88379-.52619.26373-1.15161.37646-1.70572.57668-.56301.20344-1.1173.43033-1.66227.678-1.08534.49327-2.16513,1.00578-3.02634,1.83242.26824.23849.4443.46182.77897.61074.42857.19068.89385.32462,1.33662.47943.83527.29203,1.6765.62773,2.53083.85796.46982.12662,1.40308.3379.89201,1.00414-.48576.63324-1.53925,1.0271-2.20804,1.44129-1.46579.90778-2.87472,1.90667-4.2291,2.97315-.71084.55973-1.40317,1.14097-2.08895,1.73096-.58512.50339-1.31288.95039-1.66997,1.63937.75811.35578,1.71119.2687,2.5464.31406,1.03808.0564,2.07583.11906,3.11402.17339,1.85998.09735,3.7603-.09095,5.61612-.2266,1.79507-.13121,3.59926-.46472,5.39383-.53644.90536-.03618.63791.60864.25393,1.13354-.59693.81601-1.2666,1.58438-1.82996,2.42471-.25896.38628-.94169,1.37585-.76841,1.8617.19443.54514,1.46421.32536,1.91977.32445,1.97059-.00391,3.94741.07405,5.91698.02827,1.85731-.04317,3.75407-.21419,5.57192-.60577.75034-.16165,1.38016-.29711,1.91364.39217.56962.73597-.37915.88154-.95533,1.03698-2.00492.54086-4.0901.96863-6.15727,1.17932-2.27955.23232-4.58694.28225-6.87428.41005-.00167-.03927-.00333-.07854-.005-.11782Z" style="stroke-width:0px;"/></g><path id="e" d="M82.63811,79.06966c-.62334,0-1.62232-.19156-2.212.02384-.51842.18938-.36125.88504-.36162,1.34517-.00048.59049.14741,1.37267-.03035,1.94624-.16.51627-.64323.5075-1.11464.52892-.43923.01997-1.09971.14391-1.40382-.26266-.35558-.47537-.12711-1.57222-.12823-2.12079-.00076-.37471.14011-1.11671-.24417-1.34779-.22735-.13671-.68775-.05847-.92608-.06286-.43511-.00801-.87027-.0123-1.30543-.01612-.78381-.00688-1.7072.11363-2.47284-.05927-.90293-.2039-.15535-1.03356.09383-1.54935.61648-1.27606-1.37458-1.87151-2.2499-2.23767-1.01727-.42553-.83292-1.18365-.78934-2.14815.03508-.77645-.01816-1.55765-.1933-2.31608-.12336-.53424-.6398-1.3294-.51732-1.89162.09314-.42754.50849-.51029.88967-.55989.8139-.10591,1.65935-.12429,2.47885-.0999.8465.0252,1.6302.2275,2.46082.32701.68618.08221.32569-.66318.23948-1.13244-.13678-.74453-.2749-1.48882-.40742-2.23413-.07734-.43493-.30951-1.02072.12598-1.31843.472-.32268,1.18307-.37044,1.70209-.64645.71642-.38099,1.22429-.90947,1.7257-1.53571.44018-.54977.84086-.7291,1.44053-.26376.5833.45264,1.07618.97901,1.72407,1.35123.50494.2901,2.11141.57265,2.22445,1.26292.057.34808-.19776.89726-.27304,1.22772-.18968.83271-.43353,1.70601-.51293,2.55678-.05084.5448.13852.67634.66842.64571.87409-.05052,1.74078-.28453,2.61596-.34972.46408-.03456.91787.01197,1.37578.0867.34561.0564.84469.06264,1.15153.22307.66173.34599.16926,1.49446.06268,2.04594-.18144.9388-.27622,1.80674-.14952,2.75862.08656.65036.20224,1.27842-.37766,1.73443-.6405.50366-1.5306.79929-2.24759,1.18981-.60018.3269-.99551.50126-.80971,1.23249.10616.41781.73222,1.35205.21881,1.68247-.22378.14402-.69307.07915-.94423.08227-.50926.00633-1.0186-.00593-1.52786-.00593.00012-.03088.00024-.06177.00036-.09264Z" style="stroke-width:0px;"/><g id="f"><path d="M24.68402,112.6557l2.15918,5.57617-3.21777,1.24609-6.05273-15.63672,6.90625-2.67383c1.63037-.63086,3.03809-.69824,4.22461-.2041,1.18604.49414,2.08398,1.52832,2.69238,3.10059.61475,1.58691.67578,3.01855.18311,4.29492-.49268,1.27539-1.4541,2.19043-2.88379,2.74414l-4.01123,1.55273ZM23.64643,109.97406l3.00244-1.16211c1.67334-.64746,2.20801-1.75098,1.60449-3.30957-.30957-.80078-.74316-1.31543-1.30029-1.54297-.55713-.22852-1.26465-.17676-2.12256.15527l-3.00244,1.16211,1.81836,4.69727Z" style="stroke-width:0px;"/><path d="M44.46869,109.29633l-6.10498,1.46777-.30566,3.55078-3.42139.82227,1.87305-17.69531,3.7124-.8916,9.5542,14.94727-3.44385.82812-1.86377-3.0293ZM42.87982,106.72113l-3.65674-5.8623-.59229,6.88379,4.24902-1.02148Z" style="stroke-width:0px;"/><path d="M61.0307,98.39203l-3.19385.41113c-.34521-1.71777-1.62012-2.43457-3.82471-2.15039-.88232.11328-1.55811.38965-2.02686.8291-.46924.43945-.66357.9707-.5835,1.59375.07861.6084.35693,1.03223.83643,1.27246.479.23926,1.34277.40332,2.59082.48926l2.66504.16699c1.5752.10645,2.75879.47656,3.55176,1.1084.79199.63184,1.27295,1.60254,1.44141,2.91016.21729,1.6875-.21387,3.08496-1.29297,4.18945-1.0791,1.10547-2.69043,1.7959-4.83496,2.07227-2.12939.27441-3.84375.01562-5.14355-.77539s-2.11816-2.07031-2.45312-3.83594l3.33057-.42871c.17578.88965.61426,1.5293,1.31348,1.91797.69971.38965,1.62695.50977,2.78271.36133,1.03418-.13379,1.82617-.43652,2.37598-.90918s.77979-1.05859.68945-1.75879c-.08594-.66895-.38867-1.15527-.90674-1.45996-.51855-.30371-1.36133-.48926-2.5293-.55566l-2.38574-.15625c-1.729-.10254-2.99512-.44922-3.79834-1.04199-.80273-.5918-1.28711-1.53418-1.45361-2.82715-.20947-1.62695.17969-2.95703,1.16797-3.98828.98779-1.03125,2.47754-1.67578,4.47021-1.93262.57764-.07422,1.1416-.10742,1.69141-.10156.54932.00684,1.14355.08887,1.78223.24609.63867.1582,1.20264.39453,1.69141.70996.48926.31641.9248.78516,1.30615,1.40918.38184.62305.62842,1.36816.74023,2.23438Z" style="stroke-width:0px;"/><path d="M73.80268,106.06879l-6.27393.24316-.99561,3.42188-3.51611.13574,5.30322-16.98438,3.81543-.14844,6.44043,16.53027-3.53906.1377-1.23438-3.33594ZM72.74945,103.23187l-2.4375-6.46484-1.9292,6.63477,4.3667-.16992Z" style="stroke-width:0px;"/><path d="M79.98773,109.34125l.79883-16.74805,6.54785.3125c1.28613.06152,2.33984.26562,3.16016.61133.81934.34668,1.49707.87012,2.03223,1.57031,1.28516,1.68848,1.86426,3.86523,1.7373,6.53027-.12793,2.69629-.91211,4.80762-2.35156,6.33594-1.14941,1.25-2.94141,1.81641-5.37695,1.7002l-6.54785-.3125ZM83.57074,106.63422l3.10156.14746c2.58887.12402,3.9707-1.64453,4.14453-5.30469.17578-3.67676-1.03125-5.57617-3.61914-5.69922l-3.10156-.14844-.52539,11.00488Z" style="stroke-width:0px;"/><path d="M99.10687,103.39105l-.5293,4.31445,9.01758,1.10645-.35059,2.85352-12.44141-1.52637,2.04199-16.64258,12.03027,1.47656-.34961,2.85352-8.60645-1.05664-.46289,3.76758,7.96777.97754-.35059,2.85352-7.9668-.97754Z" style="stroke-width:0px;"/><path d="M118.10297,113.82367l-4.29883-12.70117-2.30566,11.36035-3.38086-.68555,3.33496-16.43262,3.4707.70508,4.24512,12.50195,2.26953-11.17969,3.38086.68555-3.33496,16.43262-3.38086-.68652Z" style="stroke-width:0px;"/><path d="M133.19184,114.42914l-6.01367-1.80762-2.05273,2.91309-3.37012-1.0127,10.53125-14.34277,3.65625,1.09961.72461,17.72559-3.3916-1.01953-.08398-3.55566ZM133.11566,111.40375l-.20508-6.90625-3.97949,5.64844,4.18457,1.25781Z" style="stroke-width:0px;"/></g><g id="g"><path d="M75.35687,131.46039v1.17188h2.44873v.77539h-3.37891v-4.51953h3.26758v.77441h-2.3374v1.02344h2.16357v.77441h-2.16357Z" style="stroke-width:0px;"/><path d="M78.8227,132.43402c.02881.14062.08789.24805.17676.32227.08887.0752.25732.1123.50537.1123.20264,0,.36084-.0293.47412-.08691.11426-.05762.1709-.13867.1709-.24219,0-.06543-.02148-.12012-.06543-.16113-.04297-.04102-.11914-.07812-.22656-.11133l-1.03516-.32227c-.00439,0-.0293-.00781-.07471-.02246-.04541-.01367-.07715-.02539-.0957-.0332-.01855-.00879-.05273-.02246-.10254-.04102-.04932-.01855-.08789-.03809-.11475-.05859s-.06104-.04688-.10205-.07715c-.0415-.03125-.07373-.06543-.09619-.10254-.02295-.03711-.04639-.08008-.07129-.12695-.0249-.04785-.04346-.10254-.05566-.16504-.0127-.06152-.01904-.12793-.01904-.19824,0-.34277.12305-.61426.36914-.81543.24609-.2002.58154-.2998,1.00732-.2998.45117,0,.80469.09961,1.06055.2998.25586.20117.38867.47852.39648.83398h-.83691c-.00391-.30176-.21289-.45215-.62598-.45215-.15332,0-.2749.02734-.36621.08398-.09082.05566-.13623.13086-.13623.22559,0,.06641.02051.11719.06201.15234s.12207.07129.2417.1084l1.09814.31641c.4375.12793.65723.40918.65723.84277,0,.12793-.02344.25391-.06836.375-.0459.12207-.11914.24316-.2207.36328-.10059.12012-.25293.21582-.45508.28809-.20312.07227-.44238.1084-.71973.1084-1.0293,0-1.55615-.37207-1.58105-1.11621h.84961Z" style="stroke-width:0px;"/><path d="M82.82855,130.12738v.57715h-.4834v1.82227c0,.14941.01855.24707.05566.29492s.11328.07129.22949.07129c.04492,0,.11133-.00586.19824-.01855v.60742c-.14062.0459-.30859.06836-.50293.06836-.56543,0-.84863-.2627-.84863-.78711v-2.05859h-.42773v-.57715h.42773v-.89844h.86816v.89844h.4834Z" style="stroke-width:0px;"/><path d="M84.1977,132.50238v.90527h-.92969v-.90527h.92969Z" style="stroke-width:0px;"/><path d="M74.07953,136.37543h-1.0542v-.57617c.76074,0,1.20898-.2627,1.3457-.78711h.57666v4.39551h-.86816v-3.03223Z" style="stroke-width:0px;"/><path d="M79.09516,137.11371c0,.39648-.03516.74609-.10547,1.04785s-.1582.53906-.26367.71289c-.10498.17383-.23242.31348-.38086.41895-.14893.10449-.2915.1748-.42822.20996-.13623.03516-.2832.05273-.43994.05273-.38037,0-.69775-.11035-.95166-.33105-.25439-.22168-.38574-.50098-.39355-.84082h.83691c.0083.12891.06055.23242.15771.31055s.22217.11816.37549.11816c.4834,0,.7251-.41797.7251-1.25293-.00391.00391-.02051.02344-.04932.05859-.0293.03516-.05273.0625-.07129.08105s-.04688.0459-.08398.08008c-.03711.03516-.0752.06348-.11475.08398-.03906.02051-.08447.04297-.13623.06543s-.11084.03906-.17676.0498c-.06592.00977-.13623.01465-.21094.01465-.38818,0-.70459-.13965-.94824-.4209-.24414-.28125-.36572-.64941-.36572-1.10352,0-.45898.13721-.83203.41211-1.11914s.63135-.43164,1.06934-.43164c.14062,0,.2749.01562.40332.04688.12793.03125.26318.09473.40576.19238.14258.09668.2666.22168.37207.375s.19238.36621.26025.63867c.06836.27246.10254.58691.10254.94238ZM77.52631,135.62543c-.19434,0-.34814.07617-.46191.22656-.11328.15137-.17041.35254-.17041.60449s.05811.45117.17383.59863c.11572.14648.27295.21973.47119.21973s.35938-.07422.4834-.22363c.12402-.14844.18604-.34277.18604-.58203,0-.25684-.06104-.46094-.18262-.61426-.12207-.15234-.28857-.22949-.49951-.22949Z" style="stroke-width:0px;"/><path d="M79.38666,137.31781c0-1.59961.5415-2.39941,1.62451-2.39941.0791,0,.15527.00488.22949.0127.07422.00879.1748.0332.30078.07422.12598.04199.2373.09766.33496.16797.09668.07031.19043.17773.2793.32227s.14746.31641.17676.51465h-.80664c-.05762-.14062-.12695-.24121-.20703-.30078-.08105-.05957-.19141-.08984-.33203-.08984-.17383,0-.31934.05566-.4375.16699-.11719.1123-.19727.2666-.23828.46484-.02539.12402-.04395.3418-.05566.65137.13574-.14062.27051-.24023.40234-.30078.13281-.05957.29004-.08984.47168-.08984.37598,0,.68262.13281.9209.39648.2373.26465.35645.6084.35645,1.0293,0,.47949-.13574.86816-.40625,1.16602s-.625.44629-1.06348.44629c-.26074,0-.49902-.05762-.71582-.17383-.2168-.11523-.38965-.27441-.51758-.47754-.21143-.33398-.31689-.86133-.31689-1.58105ZM81.4018,137.41156c-.12012-.14453-.28125-.21777-.4834-.21777s-.36621.07617-.48926.22656c-.12402.15137-.18652.34863-.18652.59277,0,.23145.0625.4209.18652.57031.12305.14844.28516.22266.4834.22266.19434,0,.35449-.07617.48047-.22949.12598-.15234.18848-.34668.18848-.58301,0-.24316-.05957-.4375-.17969-.58203Z" style="stroke-width:0px;"/><path d="M85.71625,137.71527v.71875h-.45801v.97363h-.86816v-.97363h-1.76074v-.73145l1.60547-2.69043h1.02344v2.70312h.45801ZM84.39008,137.71527v-1.87891l-1.14648,1.87891h1.14648Z" style="stroke-width:0px;"/></g></svg>